# xmcd
#
# Track frame offsets:
# 150
# 13672
# 21642
# 35172
# 46322
# 61657
# 75450
# 88482
# 98887
# 115472
# 126092
# 141072
# 151157
#
# Disc length: 2197 seconds
#
#
# Revision: 0
# Processed by: cddbd v1.5PL3 Copyright (c) Steve Scherf et al.
# Submitted via: FreeRIP 2.52 
#
DISCID=ac08930d
DTITLE=Wannabe Texans - Alcohol is a Cheap Perfume
DYEAR=1991
DGENRE=Alt Country
TTITLE0=Party on the Prairie
TTITLE1=Rich Girl
TTITLE2=Las Vegas ain't No Place to Have a Drink
TTITLE3=Trashy White Skin
TTITLE4=Mad Maria
TTITLE5=I Cut Myself
TTITLE6=Nobody I Know
TTITLE7=Little Nomads
TTITLE8=Prison Song
TTITLE9=Palomino
TTITLE10=Dig a Hole
TTITLE11=St Patricia's Battalion
TTITLE12=Drinking Song
EXTD=
EXTT0=
EXTT1=
EXTT2=
EXTT3=
EXTT4=
EXTT5=
EXTT6=
EXTT7=
EXTT8=
EXTT9=
EXTT10=
EXTT11=
EXTT12=
PLAYORDER=
